<?xml version="1.0" encoding="UTF-8" standalone="no"?>
<svg
   xmlns:dc="http://purl.org/dc/elements/1.1/"
   xmlns:cc="http://creativecommons.org/ns#"
   xmlns:rdf="http://www.w3.org/1999/02/22-rdf-syntax-ns#"
   xmlns:svg="http://www.w3.org/2000/svg"
   xmlns="http://www.w3.org/2000/svg"
   xmlns:sodipodi="http://sodipodi.sourceforge.net/DTD/sodipodi-0.dtd"
   xmlns:inkscape="http://www.inkscape.org/namespaces/inkscape"
   inkscape:version="1.0 (4035a4fb49, 2020-05-01)"
   sodipodi:docname="findysmarva.svg"
   id="svg11"
   version="1.1"
   fill="none"
   viewBox="0 0 525 42"
   height="42"
   width="525">
  <metadata
     id="metadata15">
    <rdf:RDF>
      <cc:Work
         rdf:about="">
        <dc:format>image/svg+xml</dc:format>
        <dc:type
           rdf:resource="http://purl.org/dc/dcmitype/StillImage" />
      </cc:Work>
    </rdf:RDF>
  </metadata>
  <sodipodi:namedview
     inkscape:current-layer="svg11"
     inkscape:window-maximized="1"
     inkscape:window-y="-8"
     inkscape:window-x="-8"
     inkscape:cy="-42.426855"
     inkscape:cx="261.83477"
     inkscape:zoom="1.0828571"
     showgrid="false"
     id="namedview13"
     inkscape:window-height="1027"
     inkscape:window-width="1920"
     inkscape:pageshadow="2"
     inkscape:pageopacity="0"
     guidetolerance="10"
     gridtolerance="10"
     objecttolerance="10"
     borderopacity="1"
     bordercolor="#666666"
     pagecolor="#ffffff" />
  <path
     id="path2"
     fill="url(#paint0_linear_4:15)"
     d="M31.894 4.842H11.434V20.616H29.32V24.51H11.434V42H0.412V0.947997H31.894V4.842ZM39.6763 0.947997H50.6323V42H39.6763V0.947997ZM89.9487 0.947997H99.7827V42H90.3447L71.7987 11.31V42H61.9647V0.947997H71.6007L89.9487 31.572V0.947997ZM136.763 36.06V6.888C136.763 6.008 136.631 5.458 136.367 5.238C136.103 4.974 135.553 4.842 134.717 4.842H121.319V38.106H134.717C135.553 38.106 136.103 37.996 136.367 37.776C136.631 37.512 136.763 36.94 136.763 36.06ZM110.627 0.947997H142.241C145.717 0.947997 147.455 2.686 147.455 6.162V36.786C147.455 40.262 145.717 42 142.241 42H110.627V0.947997ZM180.511 42H169.885V28.602L152.791 0.947997H163.351L175.099 22.332L186.253 0.947997H196.747L180.511 28.404V42ZM200.953 18.702V0.947997H212.041V5.436L204.649 18.702H200.953ZM244.539 36.06V25.302C244.539 24.466 244.407 23.916 244.143 23.652C243.923 23.388 243.373 23.256 242.493 23.256H224.673C221.197 23.256 219.459 21.518 219.459 18.042V6.162C219.459 2.686 221.197 0.947997 224.673 0.947997H249.753C253.229 0.947997 254.967 2.686 254.967 6.162V13.488H244.341V6.888C244.341 6.008 244.209 5.458 243.945 5.238C243.681 4.974 243.131 4.842 242.295 4.842H232.197C231.317 4.842 230.745 4.974 230.481 5.238C230.261 5.458 230.151 6.008 230.151 6.888V17.316C230.151 18.196 230.261 18.768 230.481 19.032C230.745 19.252 231.317 19.362 232.197 19.362H249.951C253.427 19.362 255.165 21.1 255.165 24.576V36.786C255.165 40.262 253.427 42 249.951 42H224.871C221.395 42 219.657 40.262 219.657 36.786V29.46H230.283V36.06C230.283 36.94 230.393 37.512 230.613 37.776C230.877 37.996 231.449 38.106 232.329 38.106H242.493C243.373 38.106 243.923 37.996 244.143 37.776C244.407 37.512 244.539 36.94 244.539 36.06ZM292.545 42H282.975V0.947997H294.393L307.131 26.622L320.265 0.947997H331.683V42H322.113V11.112L310.827 33.09H303.567L292.545 11.178V42ZM353.023 29.988H368.731L360.877 7.416L353.023 29.988ZM372.889 42L370.051 33.882H351.637L348.799 42H338.437L354.145 0.947997H367.609L383.383 42H372.889ZM400.788 4.842V23.388H414.384C415.264 23.388 415.814 23.256 416.034 22.992C416.298 22.728 416.43 22.178 416.43 21.342V6.888C416.43 6.008 416.298 5.458 416.034 5.238C415.814 4.974 415.264 4.842 414.384 4.842H400.788ZM400.788 27.282V42H390.096V0.947997H421.842C425.318 0.947997 427.056 2.686 427.056 6.162V22.068C427.056 25.544 425.318 27.282 421.842 27.282H418.608L427.914 42H416.826L407.982 27.282H400.788ZM466.064 0.947997H476.756L461.312 42H448.244L432.866 0.947997H443.624L454.778 34.938L466.064 0.947997ZM494.176 29.988H509.884L502.03 7.416L494.176 29.988ZM514.042 42L511.204 33.882H492.79L489.952 42H479.59L495.298 0.947997H508.762L524.536 42H514.042Z" />
  <defs
     id="defs9">
    <linearGradient
       gradientUnits="userSpaceOnUse"
       y2="74.5"
       x2="278"
       y1="-27"
       x1="278"
       id="paint0_linear_4:15">
      <stop
         id="stop4"
         stop-color="#FFC700" />
      <stop
         style="stop-color:#000000;stop-opacity:1"
         id="stop6"
         stop-opacity="0"
         stop-color="#D66120"
         offset="1" />
    </linearGradient>
  </defs>
</svg>
