<svg width="30" height="30" viewBox="0 0 30 30" fill="none" xmlns="http://www.w3.org/2000/svg">
<path d="M28.8281 20.625C29.4754 20.625 30 20.1004 30 19.4531V4.6875C30 2.10274 27.8973 0 25.3125 0H4.6875C2.10274 0 0 2.10274 0 4.6875V25.3125C0 27.8973 2.10274 30 4.6875 30H25.3125C27.8973 30 30 27.8973 30 25.3125C30 24.6652 29.4754 24.1406 28.8281 24.1406C28.1808 24.1406 27.6562 24.6652 27.6562 25.3125C27.6562 26.6048 26.6048 27.6562 25.3125 27.6562H19.5703V19.1016H22.2826C22.8756 19.1016 23.3752 18.6584 23.4462 18.0698L23.6014 16.7807C23.6852 16.0831 23.1406 15.4688 22.4377 15.4688H19.5703V11.543C19.5703 10.5721 20.3572 9.78516 21.3281 9.78516H22.793C23.4402 9.78516 23.9648 9.26056 23.9648 8.61328V7.4279C23.9648 6.82755 23.5114 6.32309 22.914 6.26221C22.3199 6.20178 21.6911 6.15234 21.3281 6.15234C19.9615 6.15234 18.5916 6.7289 17.5699 7.73392C16.5173 8.76938 15.9375 10.1257 15.9375 11.5533V15.4688H13.3008C12.6535 15.4688 12.1289 15.9933 12.1289 16.6406V17.9297C12.1289 18.577 12.6535 19.1016 13.3008 19.1016H15.9375V27.6562H4.6875C3.39523 27.6562 2.34375 26.6048 2.34375 25.3125V4.6875C2.34375 3.39523 3.39523 2.34375 4.6875 2.34375H25.3125C26.6048 2.34375 27.6562 3.39523 27.6562 4.6875V19.4531C27.6562 20.1004 28.1808 20.625 28.8281 20.625Z" fill="black"/>
</svg>
