<svg width="30" height="30" viewBox="0 0 30 30" fill="none" xmlns="http://www.w3.org/2000/svg">
<g clip-path="url(#clip0_4:17)">
<path d="M15.2953 30.0004C15.1959 30.0004 15.0966 30.0004 14.9966 29.9999C12.645 30.0056 10.4723 29.9459 8.35922 29.8173C6.42197 29.6994 4.65363 29.0299 3.24509 27.8814C1.88599 26.7731 0.95787 25.2746 0.486603 23.428C0.0764466 21.8203 0.0547028 20.2422 0.0338745 18.7158C0.0187683 17.6206 0.00320435 16.3228 0 15.0031C0.00320435 13.6779 0.0187683 12.3801 0.0338745 11.2849C0.0547028 9.75872 0.0764466 8.18058 0.486603 6.57269C0.95787 4.72607 1.88599 3.22758 3.24509 2.11933C4.65363 0.970802 6.42197 0.301323 8.35945 0.183449C10.4725 0.0550459 12.6457 -0.0049212 15.0023 0.000800847C17.3545 -0.00423456 19.5266 0.0550459 21.6396 0.183449C23.5769 0.301323 25.3452 0.970802 26.7538 2.11933C28.1131 3.22758 29.041 4.72607 29.5123 6.57269C29.9224 8.18036 29.9442 9.75872 29.965 11.2849C29.9801 12.3801 29.9959 13.6779 29.9989 14.9976C29.9959 16.3228 29.9801 17.6206 29.965 18.7158C29.9563 19.3631 29.4216 19.8803 28.7773 19.8716C28.13 19.8627 27.6128 19.3308 27.6215 18.6837C27.6363 17.595 27.6521 16.3057 27.6551 14.9976C27.6521 13.695 27.6363 12.4057 27.6215 11.317C27.6025 9.92741 27.5828 8.49049 27.2413 7.15222C26.8968 5.80227 26.2344 4.72012 25.2727 3.93574C24.2324 3.08727 22.9621 2.61189 21.4973 2.52285C19.4339 2.39742 17.3099 2.33952 15.0023 2.34432C12.6892 2.33883 10.565 2.39742 8.50159 2.52285C7.03674 2.61189 5.76668 3.08727 4.72618 3.93551C3.76442 4.71989 3.10204 5.80204 2.75757 7.15222C2.41608 8.49049 2.39639 9.92741 2.3774 11.317C2.36252 12.4057 2.34695 13.695 2.34375 15.0031C2.34695 16.3057 2.36252 17.595 2.3774 18.6837C2.39639 20.0733 2.41608 21.5102 2.75757 22.8485C3.10204 24.1984 3.76442 25.2806 4.72618 26.065C5.76668 26.9134 7.03674 27.3888 8.50159 27.4778C10.565 27.6033 12.6897 27.6619 14.9968 27.6561C17.3101 27.6616 19.4339 27.6033 21.4973 27.4778C22.9621 27.3888 24.2322 26.9134 25.2727 26.065C25.9655 25.4999 26.5068 24.7748 26.8815 23.9096C27.1387 23.3159 27.8286 23.0428 28.4225 23.3001C29.0165 23.5573 29.2893 24.2472 29.0323 24.8411C28.507 26.054 27.7405 27.0768 26.7538 27.8814C25.3452 29.0301 23.5769 29.6994 21.6396 29.8173C19.6161 29.9404 17.5374 30.0004 15.2953 30.0004ZM22.2649 15.0003C22.2649 10.9617 18.9793 7.67613 14.9407 7.67613C10.9023 7.67613 7.6165 10.9617 7.6165 15.0003C7.6165 19.039 10.9023 22.3246 14.9407 22.3246C18.9793 22.3246 22.2649 19.039 22.2649 15.0003ZM19.9212 15.0003C19.9212 17.7465 17.6871 19.9808 14.9407 19.9808C12.1946 19.9808 9.96025 17.7465 9.96025 15.0003C9.96025 12.2542 12.1946 10.0199 14.9407 10.0199C17.6871 10.0199 19.9212 12.2542 19.9212 15.0003ZM23.0853 5.33238C22.1146 5.33238 21.3274 6.11927 21.3274 7.09019C21.3274 8.06111 22.1146 8.848 23.0853 8.848C24.0562 8.848 24.8431 8.06111 24.8431 7.09019C24.8431 6.11927 24.0562 5.33238 23.0853 5.33238Z" fill="black"/>
</g>
<defs>
<clipPath id="clip0_4:17">
<rect width="30" height="30" fill="white"/>
</clipPath>
</defs>
</svg>
