<svg width="30" height="30" viewBox="0 0 30 30" fill="none" xmlns="http://www.w3.org/2000/svg">
<g clip-path="url(#clip0_4:21)">
<path d="M14.9998 29.8798H14.9938C12.6533 29.8789 10.3326 29.3264 8.25302 28.2781L1.8425 29.7363C1.45134 29.8251 1.04164 29.7077 0.756912 29.425C0.472183 29.1424 0.35202 28.7336 0.43808 28.3418L1.82716 22.0278C0.633774 19.8239 0.00366211 17.4101 0.000228882 15.0167C0 15.0085 0 15.0002 0 14.9922C0.00160218 11.0259 1.57013 7.29057 4.41628 4.47441C7.25601 1.66466 11.0145 0.117188 14.9995 0.117188C18.9935 0.11879 22.746 1.66763 25.567 4.47807C28.4271 7.32765 30.0014 11.066 30 15.0041C29.9989 17.9803 29.1064 20.8566 27.4194 23.3219C27.0538 23.8561 26.3246 23.9928 25.7904 23.6272C25.2564 23.2617 25.1196 22.5325 25.4851 21.9983C26.9044 19.9242 27.6551 17.5053 27.6562 15.0032C27.6574 11.6929 26.328 8.54462 23.9129 6.13838C21.5341 3.76831 18.3685 2.46231 14.9991 2.46094C8.03123 2.46094 2.3584 8.07083 2.34375 14.9712C2.34375 14.9787 2.34398 14.986 2.34398 14.9934C2.34306 17.1293 2.94388 19.295 4.08119 21.2563C4.22836 21.5101 4.27505 21.8097 4.21188 22.096L3.12401 27.041L8.15369 25.8968C8.43132 25.8339 8.72246 25.8739 8.97285 26.0097C10.8105 27.0074 12.8927 27.5352 14.9943 27.5361H14.9995C17.2849 27.5361 19.5293 26.9181 21.4899 25.7492C22.0457 25.4176 22.765 25.5995 23.0965 26.1555C23.4279 26.7114 23.2462 27.4306 22.6902 27.7622C20.3668 29.1474 17.7074 29.8798 14.9995 29.8798H14.9998ZM11.6901 9.03625C11.4331 8.4668 11.1626 8.44734 10.9181 8.4375H10.2605C10.0317 8.4375 9.65996 8.5231 9.3457 8.86528C9.03122 9.20746 8.14476 10.0346 8.14476 11.7171C8.14476 13.3997 9.37431 15.0256 9.54575 15.2541C9.71741 15.482 11.9195 19.045 15.4067 20.4158C18.3051 21.5549 18.8949 21.3284 19.5238 21.2711C20.153 21.2144 21.554 20.4442 21.8397 19.6456C22.1258 18.8473 22.1258 18.1629 22.0399 18.0199C21.9543 17.8775 21.7255 17.7919 21.3824 17.6209C21.039 17.45 19.3575 16.6084 19.043 16.4944C18.7285 16.3804 18.4998 16.3234 18.271 16.6658C18.0421 17.0078 17.3682 17.7985 17.168 18.0265C16.9679 18.2552 16.7677 18.2835 16.4246 18.1126C16.0815 17.9409 14.9876 17.5735 13.6768 16.4088C12.6567 15.5022 11.949 14.3463 11.7487 14.0039C11.5485 13.662 11.7272 13.4766 11.8993 13.306C12.0534 13.1529 12.2619 12.9435 12.4335 12.7439C12.6048 12.5443 12.6537 12.4017 12.7679 12.1735C12.8824 11.9453 12.8252 11.7458 12.7396 11.5746C12.6537 11.4036 11.995 9.71237 11.6899 9.03625" fill="black"/>
</g>
<defs>
<clipPath id="clip0_4:21">
<rect width="30" height="30" fill="white"/>
</clipPath>
</defs>
</svg>
